<?xml version="1.0" standalone="no"?>
<!DOCTYPE svg PUBLIC "-//W3C//DTD SVG 20010904//EN"
 "http://www.w3.org/TR/2001/REC-SVG-20010904/DTD/svg10.dtd">
<svg version="1.0" xmlns="http://www.w3.org/2000/svg"
 width="300.000000pt" height="179.000000pt" viewBox="0 0 300.000000 179.000000"
 preserveAspectRatio="xMidYMid meet">
<metadata>
Created by potrace 1.10, written by Peter Selinger 2001-2011
</metadata>
<g transform="translate(0.000000,179.000000) scale(0.100000,-0.100000)"
fill="#FFFFFF" stroke="none">
<path d="M1201 1439 c-62 -20 -98 -51 -118 -102 -21 -53 -43 -33 -43 39 0 64
-13 74 -92 74 -83 0 -83 0 -86 -152 -3 -109 -7 -134 -20 -144 -11 -8 -23 -9
-34 -3 -15 8 -17 25 -16 138 2 157 1 161 -88 161 -97 0 -92 20 -92 -398 -1
-350 0 -357 20 -379 17 -18 32 -23 73 -23 79 0 84 10 86 163 1 134 8 155 49
142 19 -6 20 -14 20 -139 0 -156 5 -166 86 -166 77 0 94 17 95 98 0 37 3 61 6
54 2 -6 8 -10 13 -7 4 3 15 -11 24 -30 41 -85 121 -123 221 -104 67 13 135 70
153 130 18 63 17 488 -2 533 -44 106 -145 151 -255 115z m-431 -164 l0 -155
58 0 57 0 -3 155 -4 156 69 -3 68 -3 3 -372 2 -373 -70 0 -71 0 3 155 3 155
-57 0 -58 0 0 -155 0 -155 -65 0 -65 0 0 375 0 375 65 0 65 0 0 -155z m586
130 c31 -18 50 -39 69 -79 l26 -54 -3 -233 c-3 -225 -4 -235 -26 -272 -71
-114 -233 -116 -309 -3 l-28 41 -3 212 c-4 257 3 305 56 355 51 49 70 57 126
58 35 0 62 -7 92 -25z"/>
<path d="M666 1413 c-3 -3 9 -26 26 -51 17 -25 37 -63 44 -86 l13 -41 0 38 c1
21 -4 48 -10 60 -17 32 -66 86 -73 80z"/>
<path d="M721 1384 c13 -14 25 -20 27 -14 7 20 -7 40 -29 40 l-22 0 24 -26z"/>
<path d="M950 1387 c-32 -17 -44 -30 -47 -50 l-4 -28 51 27 c39 20 50 31 50
50 0 13 -2 24 -3 24 -2 0 -23 -10 -47 -23z"/>
<path d="M662 1334 c0 -49 24 -124 40 -124 13 0 9 18 -13 61 -11 23 -18 43
-16 45 6 6 32 -35 42 -66 8 -26 35 -58 35 -41 0 5 -4 12 -9 15 -4 3 -11 19
-14 35 -4 17 -20 51 -36 77 l-29 48 0 -50z"/>
<path d="M948 1319 c-21 -11 -38 -24 -38 -29 0 -15 7 -13 50 16 59 40 52 47
-12 13z"/>
<path d="M990 1269 c0 -7 -16 -8 -45 -3 -41 6 -45 5 -45 -15 0 -17 6 -21 34
-21 19 0 41 -3 50 -6 11 -4 15 2 14 25 -1 28 -8 46 -8 20z"/>
<path d="M903 1214 c11 -12 97 -32 97 -23 0 12 -13 18 -61 25 -24 4 -40 3 -36
-2z"/>
<path d="M660 1176 c0 -21 5 -24 45 -28 40 -3 45 -1 45 18 0 16 -8 23 -31 28
-51 10 -59 7 -59 -18z"/>
<path d="M900 1181 c0 -5 16 -12 36 -15 19 -4 42 -10 50 -13 8 -3 14 0 14 5 0
6 -17 16 -37 21 -47 13 -63 14 -63 2z"/>
<path d="M945 1132 c51 -20 67 -20 48 -1 -6 6 -30 13 -54 15 l-44 5 50 -19z"/>
<path d="M660 1110 c0 -5 12 -10 28 -10 15 0 52 -11 82 -25 l55 -25 -29 24
c-39 33 -136 58 -136 36z"/>
<path d="M925 1106 c17 -7 41 -17 55 -21 23 -7 24 -6 9 9 -8 9 -33 19 -55 21
l-39 5 30 -14z"/>
<path d="M855 1101 l-29 -6 27 -18 c35 -23 51 -22 38 2 -6 10 -7 21 -4 25 3 3
4 5 2 5 -2 -1 -17 -4 -34 -8z"/>
<path d="M902 1089 c2 -6 25 -19 51 -29 32 -12 47 -14 44 -7 -2 7 -25 20 -51
30 -30 11 -46 13 -44 6z"/>
<path d="M660 928 c1 -137 2 -151 15 -134 8 11 15 15 15 10 0 -6 -7 -19 -15
-30 -25 -33 -16 -39 14 -10 16 16 27 35 24 42 -3 8 0 14 5 14 19 0 3 -43 -28
-75 -35 -36 -41 -58 -7 -29 44 39 61 48 33 16 -21 -23 -25 -32 -14 -32 31 0
48 34 48 98 0 58 -2 62 -25 68 -14 3 -32 16 -40 27 -20 28 -20 96 0 103 8 4
15 12 15 19 0 7 5 15 11 17 22 7 -1 48 -27 48 l-24 0 0 -152z"/>
<path d="M724 1072 c4 -7 13 -12 20 -12 7 0 21 -10 32 -22 l19 -22 -27 17
c-24 15 -28 15 -28 2 0 -17 3 -18 90 -19 l65 -1 5 -45 5 -45 14 34 c13 29 13
37 0 60 -17 31 -75 43 -85 17 -5 -14 -11 -12 -36 9 -16 14 -33 25 -38 25 -5 0
-16 3 -26 7 -12 4 -15 3 -10 -5z"/>
<path d="M920 1046 c0 -2 18 -13 40 -24 27 -13 40 -16 40 -7 0 6 -11 17 -25
23 -25 12 -55 16 -55 8z"/>
<path d="M940 1011 c0 -6 14 -17 30 -26 17 -9 30 -12 30 -7 0 4 -13 16 -30 25
-16 10 -30 13 -30 8z"/>
<path d="M690 981 c0 -5 14 -11 30 -13 32 -5 41 6 14 16 -23 9 -44 7 -44 -3z"/>
<path d="M710 946 c19 -8 39 -11 44 -8 13 7 -23 21 -54 21 -22 -1 -20 -2 10
-13z"/>
<path d="M933 943 c-7 -2 -13 -11 -13 -19 0 -10 12 -14 40 -14 33 0 40 3 40
20 0 15 -6 20 -27 19 -16 0 -34 -3 -40 -6z"/>
<path d="M685 922 c6 -5 23 -12 38 -16 21 -5 28 -3 25 6 -3 7 -20 14 -39 16
-21 2 -30 0 -24 -6z"/>
<path d="M905 890 c-4 -6 11 -7 42 -3 63 8 67 13 10 13 -25 0 -49 -4 -52 -10z"/>
<path d="M922 843 c-40 -8 -15 -18 35 -14 36 3 43 6 28 12 -22 8 -28 9 -63 2z"/>
<path d="M927 787 c3 -14 -2 -29 -11 -36 -20 -17 -21 -35 -1 -27 8 3 23 2 33
-2 13 -5 11 -8 -13 -13 -24 -5 -20 -6 18 -6 53 1 63 14 18 23 -29 6 -29 7 -14
30 12 19 13 27 3 39 -19 23 -38 18 -33 -8z"/>
<path d="M1182 1391 c-9 -5 0 -13 30 -24 24 -10 79 -42 122 -73 47 -34 81 -53
87 -47 13 13 -53 74 -125 117 -60 36 -89 43 -114 27z"/>
<path d="M1317 1393 c-13 -12 -7 -23 12 -23 26 0 35 16 15 24 -19 7 -19 7 -27
-1z"/>
<path d="M1154 1363 c7 -8 71 -32 101 -39 11 -2 -2 7 -30 21 -47 23 -87 33
-71 18z"/>
<path d="M1130 1341 c0 -5 17 -15 38 -20 51 -15 74 -12 37 4 -51 22 -75 27
-75 16z"/>
<path d="M1116 1311 c-4 -5 10 -15 31 -20 47 -13 53 -13 53 -2 0 9 -8 12 -62
27 -9 3 -19 0 -22 -5z"/>
<path d="M1222 1288 c-9 -9 -12 -74 -12 -229 0 -235 3 -249 54 -249 44 0 46
11 46 251 0 198 -2 228 -16 233 -25 10 -59 7 -72 -6z m65 -247 c-1 -104 -5
-192 -9 -196 -3 -4 -16 -2 -27 5 -20 10 -21 17 -20 210 2 195 2 199 23 202 12
2 24 -4 28 -14 4 -9 6 -102 5 -207z"/>
<path d="M1339 1267 c11 -14 11 -17 0 -17 -8 0 -6 -6 7 -16 16 -13 16 -15 2
-10 -21 6 -24 -9 -4 -17 18 -7 28 17 13 32 -6 6 -7 11 -1 11 6 0 15 -5 22 -12
7 -7 12 -9 12 -6 0 4 -15 17 -32 29 -22 16 -28 17 -19 6z"/>
<path d="M1170 1256 c0 -11 -9 -13 -35 -9 -34 5 -35 5 -35 -26 0 -19 4 -30 10
-26 6 4 8 10 5 15 -5 8 17 20 35 20 5 0 16 -12 24 -27 l15 -28 1 48 c0 26 -4
47 -10 47 -5 0 -10 -6 -10 -14z"/>
<path d="M1385 1206 c-24 -19 -33 -22 -45 -13 -13 10 -13 10 -2 -5 10 -12 11
-22 3 -37 -18 -32 -13 -36 10 -7 11 14 34 33 50 41 16 9 29 22 29 30 0 21 -10
19 -45 -9z"/>
<path d="M1142 1168 c-19 -19 -14 -25 18 -24 32 1 41 20 14 30 -20 8 -18 8
-32 -6z"/>
<path d="M1387 1159 c-41 -31 -57 -79 -57 -176 0 -90 10 -121 54 -162 29 -27
48 -21 23 7 -74 82 -73 249 2 316 40 36 23 48 -22 15z"/>
<path d="M1409 1123 c-25 -27 -36 -54 -44 -100 -8 -50 15 -138 45 -174 26 -32
25 -22 -5 43 -34 73 -34 142 0 193 28 40 30 69 4 38z"/>
<path d="M1100 1100 c0 -5 17 -10 38 -9 30 0 33 2 17 9 -28 12 -55 12 -55 0z"/>
<path d="M1169 1074 c-8 -10 -23 -14 -41 -12 -18 3 -28 0 -28 -8 0 -17 34 -27
63 -19 21 6 21 6 3 -9 -20 -16 -19 -16 1 -16 17 0 21 6 21 40 1 45 0 46 -19
24z"/>
<path d="M1404 1054 c-18 -43 -14 -107 10 -152 20 -36 20 -14 1 32 -15 36 -13
64 7 119 17 43 0 45 -18 1z"/>
<path d="M1100 991 c0 -13 9 -20 28 -23 15 -3 35 -9 45 -13 13 -5 17 -2 17 13
0 13 -10 24 -31 31 -45 16 -59 14 -59 -8z"/>
<path d="M1100 952 c0 -4 20 -12 45 -18 55 -13 60 -2 6 14 -45 14 -51 15 -51
4z"/>
<path d="M1100 920 c0 -5 7 -10 15 -10 9 0 29 -7 45 -15 25 -13 30 -13 30 -2
0 8 -17 19 -39 25 -47 15 -51 15 -51 2z"/>
<path d="M1100 891 c0 -6 7 -11 15 -11 9 0 29 -7 45 -15 18 -9 30 -11 30 -5 0
6 -10 14 -22 19 -52 19 -68 22 -68 12z"/>
<path d="M1102 859 c3 -8 14 -15 25 -17 12 -2 57 -34 100 -72 43 -39 82 -70
87 -70 9 0 -92 111 -109 120 -5 3 -21 12 -35 21 -38 25 -73 34 -68 18z"/>
<path d="M1330 834 c0 -19 47 -74 63 -74 17 0 4 29 -28 60 -30 30 -35 31 -35
14z"/>
<path d="M1110 820 c0 -6 11 -15 23 -19 13 -5 52 -32 85 -61 34 -28 62 -47 62
-41 0 11 -105 103 -137 120 -27 14 -33 14 -33 1z"/>
<path d="M1290 790 c0 -5 -8 -7 -17 -3 -10 3 0 -13 21 -35 22 -23 42 -39 45
-37 2 3 -8 19 -24 35 -36 38 -22 39 19 3 27 -24 26 -23 -3 10 -37 40 -41 42
-41 27z"/>
<path d="M1126 777 c3 -8 21 -21 40 -30 23 -11 33 -22 28 -30 -4 -6 -4 -9 1
-5 4 4 16 3 26 -3 35 -18 19 0 -34 41 -57 43 -69 48 -61 27z"/>
<path d="M303 1438 c-18 -6 -33 -15 -33 -19 0 -5 -6 -9 -12 -9 -7 0 -24 -17
-38 -38 -19 -28 -25 -54 -28 -109 -5 -96 17 -161 75 -214 24 -22 43 -42 43
-45 0 -2 16 -18 35 -35 19 -17 35 -38 35 -46 0 -8 5 -11 10 -8 16 10 32 -43
20 -66 -6 -10 -15 -19 -20 -19 -11 0 -50 49 -50 64 0 38 -122 43 -151 7 -19
-24 -13 -72 16 -136 37 -79 90 -110 190 -109 97 1 136 24 178 103 29 57 23
205 -9 232 -8 6 -14 16 -14 21 0 5 -40 50 -90 99 -79 78 -90 94 -90 124 0 46
28 47 53 4 17 -31 19 -32 74 -26 37 4 63 13 76 26 19 19 20 23 7 62 -20 58
-49 99 -88 122 -39 23 -142 31 -189 15z m167 -30 c36 -18 51 -34 74 -80 15
-32 26 -64 23 -72 -6 -15 -99 -32 -117 -21 -5 3 -10 14 -10 24 0 26 -34 53
-61 49 -30 -4 -44 -43 -35 -93 6 -30 25 -55 96 -124 102 -99 129 -148 130
-232 0 -70 -42 -142 -95 -165 -54 -22 -145 -18 -186 9 -40 26 -89 116 -89 164
0 32 1 33 45 35 25 0 50 1 57 2 6 1 16 -15 21 -34 12 -47 34 -70 68 -70 34 0
49 24 49 75 0 33 -10 48 -100 140 -55 57 -107 119 -115 139 -19 44 -19 126 -1
170 39 94 151 132 246 84z"/>
<path d="M320 1398 c0 -5 6 -8 14 -8 8 0 23 -3 33 -6 15 -5 15 -4 3 5 -11 8
-11 11 -2 11 27 0 92 -42 137 -87 l46 -48 -16 40 c-21 53 -51 83 -95 95 -40
11 -120 9 -120 -2z"/>
<path d="M328 1365 c29 -7 63 -22 76 -34 12 -11 26 -21 31 -21 5 0 24 -14 42
-32 21 -20 33 -27 33 -17 0 12 2 12 10 -1 5 -8 10 -10 10 -4 0 13 -79 93 -105
106 -11 5 0 -8 25 -31 25 -22 41 -40 36 -41 -4 0 -24 14 -44 31 -44 39 -91 59
-134 58 -28 -1 -25 -3 20 -14z"/>
<path d="M256 1353 c-10 -11 96 -33 113 -24 9 5 -2 12 -32 20 -53 13 -71 14
-81 4z"/>
<path d="M240 1321 c0 -6 8 -11 19 -11 10 0 34 -3 52 -6 23 -5 31 -3 24 4 -15
15 -95 26 -95 13z"/>
<path d="M230 1293 c0 -5 21 -9 48 -10 36 -1 41 1 22 7 -33 11 -70 12 -70 3z"/>
<path d="M230 1261 c0 -8 81 -23 88 -16 2 2 1 8 -3 14 -7 13 -85 15 -85 2z"/>
<path d="M230 1215 c0 -16 37 -14 80 4 22 8 18 10 -27 10 -40 1 -53 -3 -53
-14z"/>
<path d="M296 1188 c-11 -15 -12 -26 -5 -40 12 -23 29 -15 22 11 -3 10 0 22 6
25 6 4 11 11 11 17 0 16 -18 10 -34 -13z"/>
<path d="M326 1172 c-3 -6 2 -15 11 -21 10 -6 12 -11 6 -11 -20 0 -15 -18 7
-25 11 -4 29 -23 40 -43 10 -20 19 -33 20 -29 0 13 -21 50 -41 72 -10 11 -17
22 -16 25 3 13 -21 42 -27 32z"/>
<path d="M248 1164 c-4 -3 1 -19 10 -35 12 -20 25 -29 43 -29 32 0 67 -36 81
-86 7 -25 13 -33 16 -21 6 28 -18 85 -45 107 -14 11 -39 20 -55 20 -17 0 -27
4 -23 10 3 6 2 10 -4 10 -6 0 -8 7 -5 15 6 15 -7 21 -18 9z"/>
<path d="M328 1051 c20 -22 38 -38 40 -36 7 7 -28 63 -43 69 -34 13 -33 5 3
-33z"/>
<path d="M426 1043 c4 -21 8 -52 9 -70 1 -56 15 -49 15 8 0 63 -8 99 -22 99
-7 0 -7 -14 -2 -37z"/>
<path d="M462 950 c-5 -22 -6 -42 -2 -45 9 -5 25 73 17 81 -2 3 -9 -13 -15
-36z"/>
<path d="M507 932 c-19 -21 -23 -62 -6 -62 18 0 46 42 41 62 -6 23 -15 23 -35
0z"/>
<path d="M457 843 l-16 -48 19 25 c17 21 28 70 16 70 -2 0 -11 -21 -19 -47z"/>
<path d="M220 856 c0 -8 11 -16 25 -19 31 -5 28 13 -3 24 -16 6 -22 5 -22 -5z"/>
<path d="M478 824 c-22 -42 -7 -45 23 -3 14 20 24 27 29 19 5 -8 10 -7 18 3
10 11 6 14 -21 15 -27 1 -35 -5 -49 -34z"/>
<path d="M265 800 l-40 -7 47 -2 c26 0 50 4 53 9 7 11 1 11 -60 0z"/>
<path d="M329 785 c-3 -2 -21 -5 -42 -7 -20 -1 -37 -6 -37 -11 0 -12 81 0 95
14 5 6 5 9 -1 9 -6 0 -13 -2 -15 -5z"/>
<path d="M395 779 c-132 -37 -127 -35 -111 -49 14 -11 23 -10 56 5 22 10 43
16 45 13 3 -3 -8 -11 -25 -18 -16 -7 -30 -16 -30 -21 0 -15 13 -10 53 16 20
14 37 22 37 17 0 -6 -12 -17 -26 -27 -14 -9 -23 -19 -20 -23 4 -3 19 3 34 14
46 34 59 39 38 16 -11 -12 -16 -22 -12 -22 11 0 96 62 96 70 0 4 -15 6 -32 6
-18 0 -42 2 -53 6 -11 3 -33 2 -50 -3z"/>
<path d="M1521 1436 c-8 -10 -11 -121 -11 -387 0 -425 -6 -399 85 -399 74 0
85 15 85 118 0 48 5 91 12 102 11 17 15 12 30 -53 10 -39 18 -80 18 -89 0 -9
12 -30 26 -47 23 -27 32 -31 79 -31 35 0 60 6 74 18 20 16 21 21 11 67 -7 28
-13 59 -14 70 -1 11 -7 29 -13 40 -5 11 -15 46 -22 78 -12 55 -11 61 12 110
21 43 26 67 26 142 2 147 -39 236 -118 263 -50 17 -265 16 -280 -2z m259 -16
c55 -15 98 -66 110 -129 20 -107 8 -207 -31 -263 -19 -27 -19 -27 16 -170 20
-79 38 -151 41 -160 5 -16 -3 -18 -65 -18 l-70 0 -10 38 c-5 20 -20 81 -32
135 -22 94 -24 97 -51 97 l-28 0 0 -135 0 -135 -65 0 -65 0 0 375 0 375 108 0
c59 0 123 -5 142 -10z"/>
<path d="M1550 1395 c0 -14 7 -16 43 -13 51 6 165 -24 226 -58 24 -13 46 -23
48 -20 2 2 -2 15 -8 29 -19 43 -98 71 -211 75 -87 3 -98 2 -98 -13z"/>
<path d="M1557 1362 c-4 -6 25 -11 79 -14 75 -4 94 -9 167 -46 61 -31 74 -35
52 -17 -47 38 -153 77 -226 83 -39 2 -69 0 -72 -6z"/>
<path d="M1550 1331 c0 -7 26 -11 78 -11 42 0 88 -3 102 -5 l25 -6 -25 12
c-37 16 -180 25 -180 10z"/>
<path d="M1760 1305 c0 -3 23 -20 52 -37 28 -18 46 -34 40 -36 -7 -2 -10 -8
-6 -13 8 -13 -10 -11 -23 2 -6 6 -17 9 -23 7 -8 -2 -1 -11 15 -22 21 -14 29
-15 35 -6 5 8 13 9 21 4 12 -6 12 -5 0 9 -9 12 -10 17 -2 17 19 0 3 19 -37 44
-40 24 -72 38 -72 31z"/>
<path d="M1660 1190 l0 -110 33 0 c18 0 43 7 55 16 20 13 22 24 22 94 0 70 -2
81 -22 94 -12 9 -37 16 -55 16 l-33 0 0 -110z m68 68 c15 -15 16 -128 1 -128
-5 0 -8 -4 -4 -9 11 -19 -12 -19 -28 0 -17 19 -24 100 -11 133 7 19 25 21 42
4z"/>
<path d="M1567 1272 c-24 -26 -9 -35 20 -12 13 10 31 16 39 13 8 -3 14 0 14 6
0 18 -56 13 -73 -7z"/>
<path d="M1570 1234 l-25 -15 25 5 c14 3 35 6 48 6 12 0 22 5 22 10 0 15 -42
11 -70 -6z"/>
<path d="M1585 1213 c-11 -3 -24 -9 -30 -15 -13 -12 66 1 80 13 10 10 -15 10
-50 2z"/>
<path d="M1795 1190 c3 -5 1 -10 -5 -10 -6 0 -2 -10 10 -22 11 -12 23 -18 27
-15 3 4 -2 14 -13 23 -16 13 -17 15 -1 10 21 -7 23 10 1 18 -22 8 -26 8 -19
-4z"/>
<path d="M1573 1179 c-18 -5 -33 -12 -33 -15 0 -9 73 6 85 17 11 11 -9 11 -52
-2z"/>
<path d="M1848 1173 c32 -13 -2 -53 -46 -53 -17 0 -36 -30 -33 -52 0 -4 -12
-17 -27 -28 -36 -29 -97 -23 -155 15 -38 25 -40 26 -22 5 37 -42 142 -76 181
-58 12 6 33 30 45 53 14 27 36 49 56 59 24 12 33 22 33 41 0 19 -5 25 -22 24
-13 0 -17 -3 -10 -6z"/>
<path d="M1582 1153 c-6 -2 -10 -8 -7 -13 6 -9 53 -1 61 11 5 9 -32 11 -54 2z"/>
<path d="M1550 1122 c0 -41 99 -98 150 -87 16 3 34 13 41 21 14 17 5 18 -23 3
-29 -15 -59 -5 -117 41 -42 33 -51 37 -51 22z"/>
<path d="M1843 1098 c-14 -17 -28 -86 -15 -73 11 12 34 77 28 82 -2 2 -8 -2
-13 -9z"/>
<path d="M1796 1034 c-8 -22 -7 -82 2 -87 4 -3 7 19 8 49 0 59 -1 62 -10 38z"/>
<path d="M1557 983 c-4 -3 -7 -18 -7 -32 0 -25 2 -26 45 -23 36 3 45 8 45 23
0 16 8 19 43 20 36 1 38 2 17 9 -31 10 -134 12 -143 3z"/>
<path d="M1734 955 c3 -9 6 -22 6 -29 0 -6 16 -20 34 -30 35 -18 86 -66 72
-66 -4 0 -25 14 -47 32 -21 17 -42 28 -46 23 -5 -4 -3 -10 3 -12 6 -2 10 -14
8 -26 -3 -18 9 -30 64 -65 l67 -43 -64 61 c-72 68 -69 82 4 18 37 -33 45 -37
35 -18 -7 14 -14 38 -16 53 -2 35 -36 72 -88 99 -34 17 -38 18 -32 3z"/>
<path d="M1573 913 c-13 -2 -23 -9 -23 -14 0 -11 -4 -12 50 5 43 14 26 19 -27
9z"/>
<path d="M1570 880 c0 -5 16 -10 35 -10 19 0 35 5 35 10 0 6 -16 10 -35 10
-19 0 -35 -4 -35 -10z"/>
<path d="M1550 858 c0 -8 8 -22 17 -29 9 -8 29 -34 45 -58 28 -45 28 -45 28
-15 0 22 -12 41 -45 74 -29 29 -45 39 -45 28z"/>
<path d="M1552 799 c1 -13 10 -36 20 -51 24 -35 23 -50 -2 -18 -15 19 -20 21
-20 9 0 -20 19 -36 43 -36 13 0 16 6 11 20 -4 14 -3 17 6 12 17 -10 -20 52
-42 72 -15 14 -17 13 -16 -8z"/>
<path d="M1770 802 c0 -12 13 -25 62 -64 50 -41 84 -52 53 -17 -25 26 -115 91
-115 81z"/>
<path d="M1780 751 c0 -5 4 -12 9 -15 5 -3 7 -16 3 -28 -3 -14 -2 -19 7 -14 6
4 9 12 6 17 -4 5 -2 9 4 9 5 0 13 -4 16 -10 3 -5 11 -10 16 -10 15 0 2 16 -31
40 -17 12 -30 17 -30 11z"/>
<path d="M1966 1428 c-18 -25 -21 -100 -6 -129 7 -13 21 -19 45 -19 65 0 65 0
65 -315 0 -284 0 -285 23 -299 41 -26 127 -16 149 18 4 5 7 133 8 284 0 159 4
282 10 292 6 12 24 20 48 22 27 2 40 9 47 26 5 12 14 21 20 19 13 -4 70 -146
91 -227 9 -36 23 -79 30 -97 10 -22 14 -74 14 -176 0 -166 1 -167 81 -171 86
-4 88 2 90 180 1 141 3 158 30 235 75 213 110 325 107 349 -3 23 -7 25 -63 28
-89 5 -101 -1 -120 -55 -35 -100 -34 -98 -50 -77 -8 11 -15 29 -15 42 0 12 -4
22 -10 22 -5 0 -10 8 -10 18 0 34 -32 52 -94 52 -31 0 -67 -5 -78 -11 -14 -8
-23 -8 -31 0 -7 7 -73 11 -188 11 -172 0 -178 -1 -193 -22z m374 -63 l0 -65
-60 0 -60 0 0 -310 0 -310 -65 0 -65 0 0 310 0 309 -57 3 -58 3 -3 49 c-5 80
-14 76 188 76 l180 0 0 -65z m217 -56 l38 -120 35 118 35 118 74 3 c57 2 72 0
69 -10 -3 -7 -38 -106 -77 -219 l-71 -206 0 -157 0 -156 -65 0 -65 0 0 154 0
154 -75 217 c-41 119 -75 219 -75 221 0 2 31 4 70 4 l69 0 38 -121z"/>
<path d="M2040 1414 c0 -4 11 -22 25 -40 38 -50 30 -52 -13 -4 -23 27 -43 41
-50 36 -16 -10 -15 -31 3 -46 8 -7 15 -17 15 -22 0 -6 -7 -5 -15 2 -12 10 -15
10 -15 -3 0 -13 12 -15 58 -14 37 1 56 -3 55 -10 -1 -6 4 -14 12 -17 13 -5 13
0 -1 27 -17 33 -74 103 -74 91z"/>
<path d="M2076 1399 c7 -8 23 -32 38 -53 14 -21 26 -32 26 -24 0 21 -42 80
-60 86 -12 4 -13 2 -4 -9z"/>
<path d="M2132 1370 c15 -25 24 -34 26 -24 4 18 -24 64 -39 64 -5 0 1 -18 13
-40z"/>
<path d="M2150 1403 c0 -5 9 -19 20 -33 21 -26 27 -12 10 21 -10 19 -30 26
-30 12z"/>
<path d="M2260 1391 c-19 -11 -55 -37 -80 -60 l-45 -40 32 -1 c17 0 33 4 35 9
2 6 28 23 58 39 36 20 56 37 58 51 4 26 -11 26 -58 2z"/>
<path d="M2133 1273 c-14 -3 -23 -12 -23 -23 0 -16 7 -19 45 -17 39 2 45 5 43
22 -3 21 -24 26 -65 18z"/>
<path d="M2110 1210 c0 -5 20 -10 45 -10 25 0 45 5 45 10 0 6 -20 10 -45 10
-25 0 -45 -4 -45 -10z"/>
<path d="M2123 1183 c-25 -9 -13 -39 36 -91 48 -51 50 -52 48 -25 -1 15 -6 31
-12 36 -6 4 -4 11 5 18 13 9 13 10 -1 6 -10 -3 -28 6 -45 24 l-28 30 37 -6
c23 -4 37 -2 37 4 0 11 -54 14 -77 4z"/>
<path d="M2112 1114 c4 -15 98 -118 98 -108 0 5 -23 34 -51 64 -27 30 -49 50
-47 44z"/>
<path d="M2110 1074 c0 -3 18 -26 40 -51 22 -25 40 -52 40 -59 0 -8 5 -14 10
-14 16 0 12 10 -21 62 -28 43 -69 80 -69 62z"/>
<path d="M2110 1036 c0 -4 10 -21 23 -36 12 -15 27 -36 34 -46 11 -18 12 -18
12 -1 1 9 -15 34 -34 55 -19 20 -35 33 -35 28z"/>
<path d="M2153 920 c-31 -14 -43 -25 -43 -40 0 -12 3 -20 8 -18 4 2 24 10 45
18 28 10 37 20 37 37 0 13 -1 23 -2 22 -2 0 -22 -9 -45 -19z"/>
<path d="M2158 859 c-24 -13 -23 -25 2 -32 40 -10 13 -77 -31 -77 -13 0 -19
-7 -19 -21 0 -11 4 -18 9 -15 5 4 11 0 14 -6 3 -9 12 -5 31 11 25 23 38 17 15
-6 -9 -9 -7 -12 7 -11 17 2 19 10 18 82 -1 85 -9 98 -46 75z"/>
<path d="M2111 803 c-1 -46 1 -48 30 -33 25 14 25 50 0 50 -11 0 -22 6 -24 13
-3 6 -6 -7 -6 -30z"/>
<path d="M2410 1401 c0 -3 7 -15 15 -25 18 -24 20 -40 3 -30 -7 4 -8 3 -4 -4
8 -14 39 -3 33 12 -19 45 -19 51 2 26 14 -17 21 -20 21 -10 0 26 -14 38 -42
38 -16 0 -28 -3 -28 -7z"/>
<path d="M2693 1393 c-13 -2 -23 -9 -23 -15 0 -6 10 -8 23 -4 12 3 37 6 55 6
17 0 32 5 32 10 0 10 -44 11 -87 3z"/>
<path d="M2473 1344 c-39 -30 -42 -44 -9 -44 33 0 69 31 61 53 -9 22 -14 22
-52 -9z"/>
<path d="M2701 1361 c-19 -3 -36 -11 -38 -16 -2 -8 14 -8 52 -1 30 6 55 14 55
18 0 9 -17 9 -69 -1z"/>
<path d="M2698 1328 c-27 -6 -48 -15 -48 -20 0 -6 11 -7 26 -4 15 4 39 10 55
13 16 3 29 9 29 14 0 10 2 10 -62 -3z"/>
<path d="M2450 1274 c1 -21 18 -31 63 -37 47 -7 54 -3 38 22 -10 15 -101 29
-101 15z"/>
<path d="M2635 1250 c-4 -6 -5 -12 -4 -14 8 -5 99 6 99 13 0 11 -88 12 -95 1z"/>
<path d="M2470 1223 c0 -5 19 -14 43 -21 23 -7 48 -15 55 -18 8 -4 10 0 6 10
-3 8 -20 18 -37 21 -18 4 -40 9 -49 11 -10 3 -18 1 -18 -3z"/>
<path d="M2655 1220 c-8 -13 35 -13 55 0 11 7 7 10 -17 10 -17 0 -35 -4 -38
-10z"/>
<path d="M2620 1208 c0 -8 13 -27 30 -43 16 -16 28 -31 25 -34 -3 -2 -19 8
-35 24 -17 16 -30 25 -30 19 0 -5 15 -21 34 -36 l33 -27 11 24 c11 23 5 32
-50 74 -15 11 -18 11 -18 -1z"/>
<path d="M2480 1189 c0 -5 6 -9 13 -9 23 0 133 -59 153 -82 12 -13 13 -18 4
-13 -8 5 -39 24 -69 42 -55 33 -91 42 -91 23 0 -5 7 -10 15 -10 19 0 91 -36
124 -61 13 -11 27 -19 31 -19 15 0 6 36 -14 58 -31 34 -166 92 -166 71z"/>
<path d="M2532 1112 c20 -11 49 -28 65 -39 40 -28 53 -35 53 -28 0 9 -103 72
-130 79 -16 4 -12 0 12 -12z"/>
<path d="M2500 1106 c0 -3 28 -23 63 -47 34 -23 65 -46 68 -52 4 -6 9 -5 13 1
5 9 -28 39 -84 73 -28 17 -60 30 -60 25z"/>
<path d="M2540 1050 c0 -5 10 -14 21 -21 15 -8 18 -13 10 -19 -8 -5 -3 -13 16
-25 l28 -18 -19 21 c-23 26 -11 29 16 5 17 -15 18 -15 13 -1 -8 19 -85 73 -85
58z"/>
<path d="M2550 959 c0 -11 9 -32 19 -46 21 -26 18 -50 -7 -70 -9 -7 -12 -16
-8 -20 15 -16 53 43 54 85 1 32 -3 44 -20 56 -30 21 -38 20 -38 -5z"/>
<path d="M2588 829 c-47 -48 -54 -99 -14 -99 28 0 42 16 38 43 -2 9 4 20 12
23 16 6 24 75 9 73 -5 0 -25 -18 -45 -40z"/>
<path d="M2629 783 c-1 -5 -1 -16 0 -25 2 -21 -43 -52 -64 -44 -8 3 -15 2 -15
-3 0 -13 44 -19 68 -10 18 7 22 16 22 49 0 22 -2 40 -5 40 -3 0 -6 -3 -6 -7z"/>
<path d="M1203 597 c-14 -24 -44 -28 -75 -10 -29 17 -30 17 -47 -3 -17 -21
-17 -21 -40 -3 -31 25 -47 12 -57 -44 -6 -35 -8 -39 -16 -22 -5 13 -6 7 -2
-20 10 -66 27 -76 92 -53 28 11 38 10 63 -4 26 -16 32 -16 66 -2 46 20 114 4
128 -29 13 -28 37 -32 77 -13 42 22 56 20 60 -6 4 -32 38 -30 57 3 20 37 8 79
-24 79 -28 0 -45 25 -45 68 0 16 -6 34 -12 40 -14 10 -101 8 -130 -3 -12 -5
-18 -2 -18 6 0 12 -2 12 -9 0 -7 -11 -10 -9 -16 8 -7 23 -40 28 -52 8z m37
-14 c-1 -34 -26 -117 -37 -120 -6 -2 -14 5 -18 17 -8 26 -25 16 -25 -16 0 -13
-6 -24 -13 -24 -11 0 -12 11 -4 55 11 58 27 70 44 33 10 -21 12 -19 23 25 12
46 30 64 30 30z m-124 -34 c-3 -16 -9 -43 -12 -59 -10 -52 -26 -22 -19 34 8
59 13 69 26 60 6 -3 8 -19 5 -35z m-90 -23 c-11 -44 -11 -53 0 -49 20 8 39 -8
23 -18 -22 -14 -59 -10 -59 5 0 36 25 116 36 116 10 0 10 -11 0 -54z m305 3
c-33 -27 -33 -27 -11 -39 16 -9 19 -15 11 -23 -8 -8 -14 -8 -23 1 -16 16 -28
15 -28 -3 0 -8 -4 -15 -10 -15 -12 0 -12 11 -4 63 4 22 12 37 21 37 9 0 11 -5
7 -12 -5 -7 5 -3 21 9 42 30 55 15 16 -18z m94 31 c3 -5 3 -10 -2 -10 -4 0
-15 -5 -23 -10 -12 -7 -11 -13 9 -34 21 -22 23 -29 13 -50 -13 -30 -92 -74
-92 -52 0 7 14 19 30 26 43 18 54 43 30 65 -11 10 -20 26 -20 35 0 31 41 53
55 30z m71 -142 c-8 -49 -12 -56 -27 -41 -8 8 -8 17 0 31 6 10 8 22 5 25 -8 8
5 27 18 27 7 0 8 -15 4 -42z"/>
<path d="M2509 590 c-8 -5 -26 -11 -40 -13 -13 -2 -31 -7 -39 -10 -19 -8 -44
-4 -61 10 -18 14 -112 11 -130 -4 -8 -6 -34 -13 -59 -15 -41 -3 -44 -6 -53
-37 -17 -68 5 -93 78 -91 92 3 117 1 130 -10 8 -7 29 -14 47 -17 27 -3 39 2
63 27 29 31 29 31 45 10 23 -31 48 -7 64 61 18 80 1 116 -45 89z m33 -13 c2
-34 -15 -107 -26 -107 -10 0 -11 13 -3 60 5 34 14 59 19 58 5 -2 10 -7 10 -11z
m-261 -12 c-1 -21 -53 -125 -62 -125 -5 0 -12 14 -16 31 l-6 32 -14 -27 c-20
-38 -36 -28 -37 22 -1 44 23 63 25 20 1 -17 2 -19 6 -5 7 26 30 21 40 -9 8
-24 9 -23 27 26 10 28 23 49 28 48 5 -2 9 -8 9 -13z m79 -24 c0 -16 4 -31 8
-33 11 -4 2 -88 -9 -88 -5 0 -9 14 -9 30 0 23 -4 30 -20 30 -11 0 -23 -7 -26
-15 -9 -24 -24 -17 -24 10 0 14 4 25 8 25 5 0 16 16 25 35 21 44 47 47 47 6z
m83 -61 c-22 -40 -43 -68 -47 -62 -3 6 -1 22 5 36 10 20 9 32 0 53 -7 16 -8
30 -2 36 6 6 11 1 16 -12 9 -29 20 -26 35 10 8 19 16 27 23 20 6 -6 -5 -35
-30 -81z"/>
<path d="M555 583 c-16 -3 -34 -9 -39 -14 -6 -5 -20 -9 -32 -9 -31 0 -37 -14
-38 -83 -1 -49 3 -62 19 -73 18 -13 23 -11 53 21 34 36 52 44 52 24 0 -8 15
-10 49 -5 33 4 52 3 57 -5 4 -7 22 -9 50 -5 28 3 61 0 93 -11 75 -24 83 -17
75 64 -4 37 -13 73 -19 80 -18 18 -131 24 -145 8 -14 -17 -57 -16 -71 1 -11
14 -42 16 -104 7z m91 -40 c10 -37 -15 -78 -46 -78 -21 0 -26 5 -28 33 -6 62
60 101 74 45z m124 10 c0 -10 -9 -37 -20 -61 -16 -35 -24 -43 -42 -40 -20 3
-23 10 -26 50 -2 37 0 47 10 43 9 -4 13 -18 10 -43 l-3 -37 20 24 c12 13 21
36 21 52 0 19 5 29 15 29 8 0 15 -8 15 -17z m-222 -15 c-9 -13 -27 -47 -42
-77 -20 -38 -31 -50 -38 -43 -8 8 -6 18 6 36 15 24 15 28 0 52 -13 19 -14 28
-5 37 9 9 13 6 17 -11 8 -29 18 -28 32 3 6 14 19 25 28 25 15 0 15 -2 2 -22z
m319 5 c4 -10 -1 -22 -15 -33 l-21 -17 30 -29 c18 -17 26 -31 20 -37 -6 -6
-21 4 -40 24 -23 26 -30 30 -31 17 0 -10 -7 -18 -16 -18 -12 0 -13 5 -8 23 5
12 9 34 10 50 1 15 2 29 3 32 3 13 62 3 68 -12z"/>
<path d="M602 538 c-15 -15 -16 -58 -2 -58 14 0 33 51 22 62 -4 4 -13 3 -20
-4z"/>
<path d="M1725 584 c-43 -9 -101 -28 -113 -38 -20 -14 -11 -126 10 -140 12 -7
24 -2 53 23 29 25 40 30 51 20 9 -7 29 -9 55 -5 26 4 46 2 55 -5 9 -7 29 -9
54 -5 25 4 55 1 82 -9 24 -8 51 -15 60 -15 22 0 36 49 18 60 -8 5 -11 19 -7
41 9 50 -8 65 -80 71 -47 5 -65 2 -74 -8 -15 -18 -50 -18 -75 1 -18 14 -48 17
-89 9z m-51 -103 c-24 -44 -42 -67 -48 -61 -5 5 -3 18 6 32 14 21 14 27 1 52
-10 19 -11 32 -5 38 7 7 12 3 17 -11 9 -29 20 -26 35 10 8 19 16 27 23 20 6
-6 -4 -34 -29 -80z m130 67 c16 -27 -18 -90 -47 -86 -17 2 -23 11 -25 35 -6
63 42 98 72 51z m119 -10 c-10 -57 -32 -87 -60 -88 -20 0 -33 36 -27 69 8 40
24 30 24 -16 0 -30 2 -34 15 -23 8 7 18 30 21 51 4 23 12 39 20 39 10 0 12 -9
7 -32z m102 5 c4 -12 -1 -24 -14 -34 -20 -16 -20 -17 10 -45 20 -19 26 -31 19
-38 -7 -7 -20 1 -40 24 -22 26 -29 31 -30 18 0 -10 -7 -18 -16 -18 -11 0 -14
6 -10 20 3 11 8 29 11 39 3 11 1 23 -6 26 -16 10 9 25 42 25 16 0 29 -7 34
-17z"/>
<path d="M1756 534 c-9 -23 -7 -54 3 -54 11 0 21 25 21 51 0 23 -15 25 -24 3z"/>
</g>
</svg>
